<?xml version="1.0" encoding="utf-8"?>
<!-- Generator: Adobe Illustrator 19.0.0, SVG Export Plug-In . SVG Version: 6.00 Build 0)  -->
<!DOCTYPE svg PUBLIC "-//W3C//DTD SVG 1.1//EN" "http://www.w3.org/Graphics/SVG/1.1/DTD/svg11.dtd">
<svg version="1.1" id="Calque_1" xmlns="http://www.w3.org/2000/svg" xmlns:xlink="http://www.w3.org/1999/xlink" x="0px" y="0px"
	 viewBox="-317 267.6 205.1 60.9" enable-background="new -317 267.6 205.1 60.9" xml:space="preserve">
<g id="XMLID_217_">
	<path id="XMLID_231_" fill="#000000" d="M-265.5,325.5c-0.2-0.4-0.4-1-0.7-1.6c-0.3-0.7-0.7-1.4-1-2.2c-0.4-0.8-0.8-1.6-1.2-2.5
		s-0.8-1.7-1.2-2.4c-0.4-0.7-0.7-1.4-1-2c-0.3-0.6-0.5-1-0.6-1.2c-0.2,2.1-0.4,4.3-0.5,6.8c-0.1,2.4-0.2,5-0.3,7.7h-1.7
		c0.1-3.1,0.3-6.2,0.5-9c0.2-2.9,0.4-5.6,0.7-8.3h1.5c0.5,0.8,1,1.8,1.6,2.9s1.1,2.2,1.7,3.4c0.6,1.2,1.1,2.3,1.6,3.5
		c0.5,1.2,1,2.2,1.4,3.1c0.4-0.9,0.9-1.9,1.4-3.1c0.5-1.1,1.1-2.3,1.6-3.5c0.6-1.2,1.1-2.3,1.7-3.4s1.1-2.1,1.6-2.9h1.4
		c0.3,2.6,0.5,5.4,0.7,8.3c0.2,2.9,0.4,5.9,0.5,9h-1.7c-0.1-2.7-0.2-5.2-0.3-7.7c-0.1-2.4-0.3-4.7-0.5-6.8c-0.1,0.2-0.3,0.6-0.6,1.2
		c-0.3,0.6-0.6,1.2-1,2c-0.4,0.8-0.8,1.6-1.1,2.4c-0.4,0.9-0.8,1.7-1.2,2.5c-0.4,0.8-0.7,1.6-1,2.2c-0.3,0.7-0.5,1.2-0.7,1.6H-265.5
		z"/>
	<path id="XMLID_228_" fill="#000000" d="M-247.8,314.8c0.8,0,1.6,0.1,2.2,0.4c0.6,0.3,1.1,0.6,1.4,1c0.4,0.4,0.6,0.9,0.8,1.5
		c0.2,0.6,0.2,1.2,0.2,1.9v8.2c-0.2,0-0.4,0.1-0.7,0.2c-0.3,0.1-0.7,0.1-1.1,0.2s-0.9,0.1-1.4,0.2c-0.5,0-1,0.1-1.6,0.1
		c-0.7,0-1.3-0.1-1.9-0.2c-0.6-0.1-1.1-0.4-1.5-0.7c-0.4-0.3-0.8-0.7-1-1.2c-0.2-0.5-0.4-1.1-0.4-1.9c0-0.7,0.1-1.3,0.4-1.8
		c0.3-0.5,0.6-0.9,1.1-1.2c0.5-0.3,1.1-0.6,1.7-0.7c0.7-0.1,1.4-0.2,2.2-0.2c0.2,0,0.5,0,0.7,0s0.5,0.1,0.8,0.1s0.5,0.1,0.6,0.1
		c0.2,0,0.3,0.1,0.4,0.1v-0.8c0-0.5,0-0.9-0.1-1.3c-0.1-0.4-0.2-0.8-0.4-1.2c-0.2-0.3-0.5-0.6-1-0.8c-0.5-0.2-0.9-0.3-1.6-0.3
		c-1,0-1.7,0.1-2.1,0.2c-0.5,0.1-0.8,0.2-1,0.3l-0.2-1.4c0.3-0.1,0.7-0.3,1.3-0.4C-249.3,314.8-248.6,314.8-247.8,314.8z
		 M-247.7,326.8c0.6,0,1.2,0,1.7-0.1c0.5,0,0.9-0.1,1.2-0.2v-4.6c-0.2-0.1-0.5-0.2-0.9-0.3c-0.4-0.1-1-0.1-1.6-0.1
		c-0.4,0-0.8,0-1.2,0.1s-0.8,0.2-1.2,0.4c-0.4,0.2-0.7,0.5-0.9,0.8c-0.2,0.3-0.4,0.8-0.4,1.3s0.1,0.9,0.2,1.2
		c0.1,0.3,0.4,0.6,0.7,0.8c0.3,0.2,0.6,0.3,1,0.4C-248.6,326.8-248.2,326.8-247.7,326.8z"/>
	<path id="XMLID_226_" fill="#000000" d="M-235,322.5c-0.4,0.4-0.7,0.9-1.1,1.4c-0.4,0.5-0.7,1-1.1,1.4c-0.3,0.5-0.7,0.9-0.9,1.4
		c-0.3,0.5-0.5,0.9-0.7,1.3h-1.7c0.7-1.3,1.4-2.5,2.2-3.5c0.8-1.1,1.6-2.1,2.4-3.2l-4.4-6.2h1.9l3.4,4.9l3.4-4.9h1.8l-4.3,6.1
		c0.4,0.5,0.8,0.9,1.2,1.5c0.4,0.5,0.8,1.1,1.2,1.7c0.4,0.6,0.8,1.2,1.2,1.8s0.7,1.2,1.1,1.8h-1.7c-0.2-0.4-0.4-0.8-0.7-1.2
		c-0.3-0.4-0.6-0.9-0.9-1.4s-0.7-1-1.1-1.5C-234.2,323.5-234.6,323-235,322.5z"/>
	<path id="XMLID_223_" fill="#000000" d="M-224.5,311.2c0,0.4-0.1,0.7-0.4,0.9c-0.3,0.2-0.5,0.3-0.8,0.3c-0.3,0-0.6-0.1-0.9-0.3
		c-0.2-0.2-0.4-0.5-0.4-0.9s0.1-0.7,0.4-0.9c0.2-0.2,0.5-0.3,0.9-0.3c0.3,0,0.6,0.1,0.8,0.3C-224.6,310.5-224.5,310.8-224.5,311.2z
		 M-224.9,328h-1.6v-12.9h1.6V328z"/>
	<path id="XMLID_221_" fill="#000000" d="M-220.6,315.5c0.5-0.1,1.1-0.3,1.9-0.4s1.8-0.2,3-0.2c1.6,0,2.8,0.5,3.6,1.4
		c0.1-0.1,0.2-0.2,0.5-0.3c0.2-0.2,0.5-0.3,0.9-0.5c0.4-0.2,0.8-0.3,1.3-0.4s1-0.2,1.6-0.2c1,0,1.8,0.1,2.4,0.4
		c0.6,0.3,1.1,0.7,1.4,1.2c0.3,0.5,0.6,1.2,0.7,1.9c0.1,0.7,0.2,1.5,0.2,2.4v7.2h-1.6v-6.7c0-0.8,0-1.6-0.1-2.2
		c-0.1-0.6-0.2-1.1-0.4-1.5s-0.5-0.7-1-0.9c-0.4-0.2-1-0.3-1.6-0.3c-0.5,0-1,0-1.4,0.1c-0.4,0.1-0.8,0.2-1.1,0.3
		c-0.3,0.1-0.5,0.3-0.7,0.4c-0.2,0.1-0.3,0.2-0.4,0.3c0.1,0.4,0.3,0.9,0.3,1.5c0.1,0.5,0.1,1.1,0.1,1.7v7.4h-1.6v-6.7
		c0-0.8,0-1.6-0.1-2.2c-0.1-0.6-0.2-1.1-0.5-1.5c-0.2-0.4-0.6-0.7-1-0.9c-0.4-0.2-1-0.3-1.7-0.3c-0.8,0-1.4,0-2,0.1
		c-0.5,0.1-0.9,0.2-1,0.2v11.4h-1.6v-12.7H-220.6z"/>
	<path id="XMLID_218_" fill="#000000" d="M-199.8,321.5c0-1.1,0.2-2.1,0.5-3c0.3-0.8,0.8-1.5,1.3-2.1c0.5-0.6,1.1-1,1.8-1.3
		c0.7-0.3,1.4-0.4,2.1-0.4c1.6,0,2.8,0.5,3.8,1.6c0.9,1,1.4,2.6,1.4,4.8c0,0.1,0,0.3,0,0.4s0,0.3,0,0.4h-9.1c0,1.6,0.4,2.8,1.2,3.6
		c0.8,0.8,1.9,1.3,3.5,1.3c0.9,0,1.6-0.1,2.1-0.2c0.5-0.2,0.9-0.3,1.1-0.4l0.3,1.4c-0.2,0.1-0.7,0.3-1.3,0.5s-1.4,0.3-2.3,0.3
		c-1.1,0-2.1-0.2-2.9-0.5c-0.8-0.3-1.5-0.8-2-1.4s-0.9-1.3-1.1-2.1C-199.7,323.4-199.8,322.5-199.8,321.5z M-190.6,320.5
		c0-1.4-0.3-2.4-0.9-3.1c-0.6-0.7-1.5-1.1-2.6-1.1c-0.6,0-1.1,0.1-1.6,0.4c-0.5,0.3-0.9,0.5-1.2,0.9c-0.3,0.4-0.6,0.8-0.8,1.4
		c-0.2,0.6-0.3,1.1-0.3,1.6h7.4V320.5z"/>
</g>
<path id="XMLID_215_" fill="#000000" d="M-255.3,272.3l-3.6,16.7c5-0.4,8.8-7,8.8-12.3c0-3.7-1.8-6.8-6.2-6.8c-8.1,0-13,4.6-13,12.2
	c0,2.5,0.6,3,0.7,3.4c-3.5,0-5.4-1.2-5.4-4.9c0-6.7,9.2-13,17.6-13c8.2,0,11.8,4.7,11.8,9.9c0,6.4-5.5,13.4-14.5,13.4h-0.2l-3,14.3
	h-7.2l6.8-31.8L-255.3,272.3z"/>
<path id="XMLID_212_" fill="#000000" d="M-235.6,301.5c2.5,0,6.7-2.9,8.4-6.6h2.2c-2.9,5.2-7.7,10.2-14.1,10.2c-4.8,0-7.4-3.7-7.4-8
	c0-6.4,2.7-17.5,11.8-17.5c4.1,0,6.4,1.7,6.4,5.2c0,6.1-6.6,9.6-11.3,10.2c-0.1,0.8-0.1,1.6-0.1,2.2
	C-239.7,300.5-237.5,301.5-235.6,301.5z M-233,282.3c-2.8,0-5.1,5.7-6.2,10.4c4.6-0.1,7.9-4,7.9-7.6
	C-231.2,284.1-231.5,282.3-233,282.3z"/>
<path id="XMLID_210_" fill="#000000" d="M-215,272.2c0,0-0.8,3.4-1.7,7.9h3l-0.4,2h-3c-3.5,15.8-3.4,16.3-3.4,16.6
	c0,1.1,0.5,1.9,2.5,1.9s4.6-2.8,6.6-4.4h1.7c-2.3,2.3-8,9-11.9,9s-6.2-1.7-6.2-5.5c0-2.7,2.6-13.3,3.5-17.6h-1.7l0.4-2h1.7l1.5-6.9
	L-215,272.2z"/>
<path id="XMLID_208_" fill="#000000" d="M-202.2,280.1l-0.6,2.5c1.8-1.4,3.8-2.5,5.9-2.5c2.2,0,3.6,1.3,3.6,3.2
	c0,1.8-1.3,3.9-3.8,3.9c-2.8,0-1.4-3.3-2.9-3.3s-2.3,0.5-3.5,1.6l-4.2,19.6h-7.2l5.3-25H-202.2z"/>
<path id="XMLID_197_" fill="#000000" d="M-174.8,287c0.3,0.3,0.8,0.4,1.5,0.4c2.4,0,3.4-1.7,5.3-2.5l0.2,1.1c-1.5,2-4.2,3.6-7.1,4.4
	c-1,10.1-6.4,15-11.4,15c-5.4,0-7.7-2.2-7.7-8.2c0-12.3,6.3-17.6,13.2-17.6C-176.1,279.6-174.9,283.3-174.8,287z M-178.6,290.9
	c-1.5,0-2.1-1.1-2.1-2.3c0-1.4,0.9-3,2.2-3.5c-0.2-1.6-0.7-2.6-2.1-2.6c-4.7,0-6.7,10.2-6.7,14.2c0,3,1.4,3.8,3.4,3.8
	C-180.9,300.6-179.2,295.8-178.6,290.9z"/>
<path id="XMLID_193_" fill="#000000" d="M-152.2,297.1c-0.2,0.5-0.2,1.1-0.2,1.6c0,1.1,0.5,1.9,2.5,1.9s2.8-1.6,4.8-3.2h1.7
	c-2.3,2.3-6.1,7.7-10,7.7s-6.2-1.7-6.2-5.5c0-0.8,0.1-1.6,0.3-2.6l1.9-9c0.1-0.5,0.2-0.9,0.2-1.3c0-1.8-1-3-2.3-3
	c-1.2,0-2.1,0.4-3.2,1.1l-4.2,20.2h-7.2l5.3-25h7.2l-0.6,2.7c2.1-1.5,4.4-2.7,6.6-2.7c2.7,0,5.8,2.9,5.8,6.3c0,0.4,0,0.8-0.1,1.2
	L-152.2,297.1z"/>
<path id="XMLID_190_" fill="#000000" d="M-136.9,280.1l-3.6,17c-0.1,0.5-0.2,1.1-0.2,1.6c0,1.1,0.5,1.9,2.5,1.9s4.6-2.8,6.6-4.4h1.7
	c-2.3,2.3-8,9-11.9,9s-6.3-1.7-6.3-5.5c0-0.8,0.1-1.6,0.3-2.6l3.6-17C-144.2,280.1-136.9,280.1-136.9,280.1z M-139.2,269.5
	c2.2,0,4,1.8,4,4c0,2.2-1.8,4-4,4s-4-1.8-4-4C-143.2,271.3-141.4,269.5-139.2,269.5z"/>
<path id="XMLID_186_" fill="#000000" d="M-112.4,283.6l0.5,1c-0.5,1.8-1.4,4.1-3.4,5.3c-0.5,10.4-6.5,15.6-11.2,15.6
	c-5.4,0-7.9-2.3-7.9-8.3c0-12.2,6.3-17.6,13.2-17.6c2.4,0,4.7,1,4.7,2.2c0,1.5-1.2,2.1-2.3,2.4c-0.4-1.1-1.1-1.7-2.2-1.7
	c-4.9,0-6.7,10.2-6.7,14.2c0,3,1.5,3.8,3.5,3.8c3,0,4.7-5.4,5.2-10c-1-0.2-1.4-1-1.4-2.1c0-1.8,1.8-3.8,3.3-3.8c1,0,1.7,0.3,1.7,1.4
	c0,0.1,0,0.3,0,0.5C-114,285.7-113.5,284.8-112.4,283.6z"/>
<path id="XMLID_176_" fill="none" d="M-302.6,305.7c7.8,0,14.1-6.3,14.1-14.1s-6.3-14.1-14.1-14.1c-1.5,0-2.9,0.2-4.2,0.6V305
	C-305.5,305.5-304.1,305.7-302.6,305.7z"/>
<path id="XMLID_137_" fill="#000000" d="M-302.6,267.8c-1.1,0-2.1,0.1-3.2,0.2v0.1v9.8c1-0.2,2.1-0.4,3.2-0.4
	c7.8,0,14.1,6.3,14.1,14.1s-6.3,14.1-14.1,14.1c-1.1,0-2.2-0.1-3.2-0.4v9.9c1,0.1,2.1,0.2,3.2,0.2c13.2,0,23.8-10.7,23.8-23.8
	S-289.4,267.8-302.6,267.8z"/>
<polygon id="XMLID_143_" fill="#000000" points="-306.8,268.2 -317,279 -317,305.1 -306.8,299.6 -306.8,278.2 "/>
<polygon id="XMLID_177_" fill="#000000" points="-306.8,305.1 -317,310.6 -306.8,328 -306.8,315.1 "/>
</svg>
